<svg width="737" height="510" viewBox="0 0 737 510" fill="none" xmlns="http://www.w3.org/2000/svg">
<g id="undraw_aircraft_fbvl 1">
<g clip-path="url(#clip0)">
<g id="cloud">
<path id="Vector" d="M281.53 388.243L270.75 395.702L277.281 382.716C275.431 381.103 273.143 380.209 270.778 380.176H270.605C269.857 380.192 269.11 380.132 268.372 379.995L264.726 382.527L266.286 379.418C263.703 378.427 261.471 376.57 259.908 374.112L253.385 378.66L257.503 370.458C253.69 365.447 248.546 362.376 242.882 362.376C236.095 362.376 230.05 366.789 226.147 373.672C224.99 375.733 223.354 377.423 221.406 378.568C219.457 379.713 217.266 380.273 215.056 380.192H214.695C207.201 380.192 201.129 389.478 201.129 400.941C201.129 412.403 207.201 421.69 214.695 421.69C216.342 421.684 217.962 421.239 219.416 420.393C221.968 419.04 224.757 418.308 227.593 418.247C230.428 418.187 233.241 418.8 235.839 420.045C238.036 421.117 240.414 421.671 242.82 421.671C245.225 421.671 247.604 421.117 249.801 420.045C252.377 418.824 255.163 418.222 257.97 418.281C260.777 418.34 263.54 419.058 266.071 420.386C267.516 421.21 269.12 421.644 270.75 421.652C278.244 421.652 284.317 412.365 284.317 400.903C284.371 396.494 283.413 392.141 281.53 388.243Z" fill="#F2F2F2"/>
<path id="Vector_2" d="M585.861 378.387L575.081 385.847L581.611 372.861C579.762 371.247 577.474 370.354 575.109 370.321H574.935C574.188 370.337 573.44 370.276 572.703 370.139L569.057 372.671L570.616 369.563C568.033 368.572 565.801 366.715 564.239 364.256L557.715 368.805L561.833 360.602C558.02 355.591 552.877 352.521 547.213 352.521C540.426 352.521 534.381 356.933 530.478 363.817C529.321 365.878 527.685 367.567 525.736 368.713C523.788 369.858 521.597 370.418 519.386 370.336H519.026C511.532 370.336 505.459 379.623 505.459 391.085C505.459 402.548 511.532 411.834 519.026 411.834C520.672 411.829 522.293 411.384 523.747 410.538C526.298 409.184 529.088 408.452 531.923 408.392C534.758 408.332 537.572 408.945 540.17 410.189C542.366 411.261 544.745 411.815 547.15 411.815C549.556 411.815 551.935 411.261 554.131 410.189C556.707 408.968 559.493 408.367 562.3 408.426C565.107 408.485 567.87 409.202 570.402 410.53C571.846 411.355 573.451 411.789 575.081 411.797C582.575 411.797 588.648 402.51 588.648 391.047C588.701 386.639 587.743 382.286 585.861 378.387V378.387Z" fill="#F2F2F2"/>
<path id="Vector_3" d="M566.401 146.866L555.622 154.326L562.152 141.34C560.303 139.726 558.015 138.833 555.649 138.8H555.476C554.728 138.816 553.981 138.755 553.244 138.618L549.597 141.15L551.157 138.042C548.574 137.05 546.342 135.194 544.779 132.735L538.256 137.284L542.374 129.081C538.561 124.07 533.417 121 527.754 121C520.967 121 514.922 125.412 511.019 132.296C509.861 134.357 508.225 136.046 506.277 137.191C504.329 138.337 502.138 138.897 499.927 138.815H499.567C492.073 138.815 486 148.102 486 159.564C486 171.027 492.073 180.313 499.567 180.313C501.213 180.308 502.834 179.863 504.288 179.017C506.839 177.663 509.629 176.931 512.464 176.871C515.299 176.811 518.113 177.424 520.71 178.668C522.905 179.746 525.282 180.307 527.687 180.313C530.093 180.32 532.473 179.772 534.672 178.706C537.248 177.485 540.034 176.884 542.841 176.943C545.648 177.001 548.411 177.719 550.942 179.047C552.387 179.872 553.992 180.306 555.622 180.313C563.115 180.313 569.188 171.027 569.188 159.564C569.248 155.143 568.29 150.776 566.401 146.866V146.866Z" fill="#F2F2F2"/>
<path id="Vector_4" d="M167.656 94.5657L158.716 100.227L164.138 90.3805C162.606 89.1496 160.705 88.4677 158.739 88.4435H158.6C157.979 88.4499 157.357 88.4036 156.743 88.3052L153.721 90.2191L155.013 87.9132C152.868 87.1622 151.015 85.7541 149.718 83.8893L144.307 87.3482L147.768 81.1338C146.329 79.2736 144.493 77.7578 142.393 76.6967C140.294 75.6356 137.984 75.0559 135.632 75C130.002 75 124.984 78.3436 121.788 83.5665C120.827 85.1343 119.465 86.4186 117.843 87.2877C116.222 88.1568 114.398 88.5795 112.559 88.5127H112.259C106.041 88.5127 101 95.5688 101 104.262C101 112.955 106.041 120 112.259 120C113.627 119.996 114.973 119.659 116.182 119.02C118.299 117.99 120.616 117.432 122.97 117.387C125.325 117.341 127.662 117.808 129.818 118.755C131.633 119.561 133.598 119.978 135.586 119.978C137.573 119.978 139.538 119.561 141.354 118.755C143.493 117.827 145.806 117.371 148.137 117.417C150.468 117.463 152.762 118.009 154.863 119.02C156.061 119.64 157.389 119.968 158.739 119.977C164.957 119.977 169.998 112.932 169.998 104.239C170.042 100.869 169.237 97.5427 167.656 94.5657Z" fill="#F2F2F2"/>
<path id="Vector_5" d="M619.122 473.612L613.749 477.334L617.008 470.86C616.087 470.05 614.945 469.602 613.763 469.586H613.68C613.306 469.59 612.933 469.56 612.564 469.495L610.748 470.753L611.524 469.237C610.235 468.744 609.122 467.818 608.342 466.592L605.091 468.866L607.171 464.78C606.306 463.557 605.202 462.56 603.941 461.862C602.679 461.165 601.291 460.783 599.878 460.747C596.495 460.747 593.479 462.945 591.559 466.379C590.981 467.41 590.163 468.255 589.188 468.826C588.214 469.397 587.118 469.675 586.013 469.632H585.833C582.096 469.632 579.067 474.271 579.067 479.987C579.067 485.703 582.096 490.335 585.833 490.335C586.655 490.332 587.463 490.111 588.19 489.691C589.462 489.013 590.854 488.647 592.269 488.617C593.684 488.587 595.088 488.894 596.384 489.516C597.475 490.047 598.656 490.321 599.85 490.321C601.044 490.321 602.225 490.047 603.316 489.516C604.602 488.907 605.992 488.607 607.393 488.637C608.793 488.667 610.172 489.026 611.434 489.691C612.154 490.098 612.952 490.314 613.763 490.32C617.5 490.32 620.529 485.688 620.529 479.972C620.556 477.756 620.072 475.569 619.122 473.612V473.612Z" fill="#F2F2F2"/>
<path id="Vector_6" d="M125.468 456.566L111.992 465.12L120.164 450.242C117.855 448.382 114.99 447.351 112.027 447.315H111.818C110.881 447.324 109.944 447.254 109.019 447.106L104.463 449.998L106.41 446.513C103.178 445.378 100.385 443.251 98.4294 440.433L90.2744 445.659L95.4908 436.269C93.3218 433.458 90.5542 431.167 87.3898 429.564C84.2253 427.96 80.7438 427.085 77.1987 427C68.7134 427 61.1496 432.053 56.3331 439.945C54.8835 442.314 52.8315 444.255 50.3873 445.568C47.9431 446.881 45.1944 447.52 42.4228 447.419H41.9706C32.5985 447.419 25 458.082 25 471.218C25 484.355 32.5985 495 41.9706 495C44.0319 494.993 46.0607 494.485 47.8826 493.519C51.0742 491.962 54.5658 491.12 58.1148 491.051C61.6639 490.982 65.1855 491.687 68.4351 493.118C71.1721 494.337 74.134 494.967 77.1291 494.967C80.1243 494.967 83.0861 494.337 85.8231 493.118C89.0469 491.717 92.534 491.028 96.0473 491.097C99.5607 491.166 103.018 491.992 106.184 493.519C107.991 494.456 109.993 494.951 112.027 494.965C121.399 494.965 128.997 484.32 128.997 471.183C129.063 466.091 127.85 461.065 125.468 456.566V456.566Z" fill="#F2F2F2"/>
<path id="Vector_7" d="M436.83 63.2034L412.988 78.547L427.431 51.8361C423.341 48.5175 418.281 46.6795 413.049 46.6124H412.666C411.012 46.6453 409.359 46.52 407.729 46.2382L399.664 51.4463L403.113 45.0531C397.4 43.0136 392.464 39.1943 389.007 34.138L374.579 43.4938L383.687 26.6222C375.254 16.3152 363.877 10 351.35 10C336.339 10 322.969 19.0751 314.336 33.2336C311.776 37.4735 308.158 40.948 303.848 43.3035C299.539 45.6591 294.693 46.8115 289.804 46.6436H289.006C272.432 46.6436 259 65.7451 259 89.3217C259 112.898 272.432 132 289.006 132C292.648 131.988 296.233 131.073 299.448 129.333C305.091 126.549 311.261 125.043 317.532 124.92C323.803 124.796 330.026 126.057 335.772 128.616C340.625 130.834 345.883 131.986 351.204 132C356.524 132.013 361.788 130.887 366.652 128.694C372.35 126.183 378.511 124.946 384.72 125.067C390.929 125.188 397.039 126.664 402.638 129.396C405.834 131.092 409.383 131.985 412.988 132C429.563 132 442.994 112.898 442.994 89.3217C443.126 80.2277 441.007 71.2459 436.83 63.2034V63.2034Z" fill="#F2F2F2"/>
<path id="Vector_8" d="M734.86 193.044L726.697 199.712L731.648 188.115C730.248 186.665 728.513 185.862 726.718 185.833H726.592C726.024 185.841 725.457 185.787 724.896 185.671L722.136 187.925L723.316 185.209C721.358 184.324 719.666 182.666 718.481 180.47L713.541 184.543L716.701 177.224C715.387 175.033 713.711 173.248 711.794 171.998C709.877 170.749 707.768 170.066 705.62 170C700.48 170 695.898 173.938 692.981 180.089C692.103 181.936 690.859 183.449 689.379 184.472C687.898 185.496 686.233 185.994 684.554 185.915H684.28C678.603 185.915 674 194.225 674 204.464C674 214.703 678.603 223 684.28 223C685.529 222.995 686.758 222.599 687.862 221.846C689.795 220.632 691.91 219.976 694.06 219.922C696.21 219.868 698.343 220.418 700.312 221.533C701.97 222.484 703.764 222.974 705.578 222.974C707.393 222.974 709.187 222.484 710.845 221.533C712.798 220.441 714.91 219.904 717.038 219.958C719.167 220.012 721.261 220.656 723.179 221.846C724.273 222.576 725.486 222.962 726.718 222.973C732.395 222.973 736.998 214.676 736.998 204.437C737.038 200.468 736.303 196.55 734.86 193.044V193.044Z" fill="#F2F2F2"/>
</g>
<g id="aircraft">
<path id="Vector_9" d="M150.45 365.606C157.672 366.683 169.764 366.095 183.573 364.644C221.123 360.706 271.418 350.457 271.418 350.457C271.418 350.457 533.453 312.315 704.958 179.785C704.958 179.785 729.079 157.063 697.978 141.701C693.213 139.433 688.289 137.618 683.264 136.275L682.864 136.004C679.2 133.729 675.368 131.805 671.415 130.256C659.772 125.599 640.96 121.279 621.397 129.962L137.933 340.119C137.933 340.119 123.573 361.572 150.45 365.606Z" fill="#3F3D56"/>
<path id="Vector_10" d="M241.349 301.055L116.033 244.36L71.5629 264.322L137.933 340.119C137.933 340.119 243.596 315.796 241.349 301.055Z" fill="#3F3D56"/>
<path id="Vector_11" d="M495.496 187.536L269.525 173.375L237.45 189.255L343.743 213.267L382.167 242.513L495.496 187.536Z" fill="#3F3D56"/>
<path id="Vector_12" d="M183.573 364.644C221.123 360.706 271.418 350.457 271.418 350.457C271.418 350.457 533.453 312.315 704.958 179.785C704.958 179.785 729.079 157.063 697.978 141.701L697.986 142.12C697.986 142.12 663.849 182.705 471.807 255.74L183.573 364.644Z" fill="#6C63FF"/>
<path id="Vector_13" d="M216.987 354.774L132.932 419.33L108.602 422.123L153.818 362.375C153.818 362.375 218.107 330.185 216.987 354.774Z" fill="#3F3D56"/>
<path id="Vector_14" d="M664.934 154.78C669.443 153.786 677.759 143.088 682.83 136.012C679.166 133.737 675.335 131.813 671.382 130.264C667.26 135.827 659.761 145.027 654.593 145.976C647.144 147.409 658.14 156.267 664.934 154.78Z" fill="#6C63FF"/>
<path id="Vector_15" d="M293.14 490.13L354.395 479.12L494.296 313.17L520.265 282.358L532.876 267.389C497.782 247.729 389.285 312.408 389.285 312.408C387.536 315.017 387.645 318.631 388.657 322.411C390.558 329.486 395.62 337.114 397.52 339.839C397.98 340.509 398.249 340.858 398.249 340.858L293.14 490.13Z" fill="#3F3D56"/>
</g>
</g>
</g>
<defs>
<clipPath id="clip0">
<rect width="737" height="510" fill="white"/>
</clipPath>
</defs>
</svg>
